<svg width="520" height="475" viewBox="0 0 520 475" fill="none" xmlns="http://www.w3.org/2000/svg">
<path d="M351.631 227.5C353.287 214.439 358.169 201.939 365.905 191.157C375.597 177.648 389.28 167.517 405.03 162.19C420.78 156.864 437.804 156.609 453.706 161.462C469.608 166.315 483.589 176.032 493.68 189.245C503.772 202.459 509.467 218.503 509.964 235.122C510.462 251.741 505.736 268.098 496.452 281.891C487.169 295.684 473.794 306.219 458.211 312.014C446.364 316.42 433.694 317.918 421.252 316.46C424.725 308.331 427.257 301.206 429.835 292.246C436.534 292.327 443.231 291.179 449.584 288.816C460.316 284.825 469.527 277.57 475.92 268.071C482.314 258.572 485.568 247.308 485.226 235.863C484.883 224.417 480.961 213.368 474.011 204.268C467.061 195.168 457.433 188.477 446.481 185.134C435.53 181.792 423.806 181.967 412.96 185.636C402.113 189.304 392.689 196.281 386.015 205.584C381.305 212.148 378.132 219.637 376.671 227.5H351.631ZM420.357 289.022C421.028 286.674 421.705 284.19 422.407 281.512L422.407 281.512L420.842 290.024C420.687 289.727 420.522 289.391 420.357 289.022Z" fill="#F0EAD2" stroke="#F0EAD2" stroke-width="20"/>
<mask id="path-2-inside-1_711_31" fill="white">
<path d="M89 237.5C89 276.885 104.645 314.656 132.495 342.505C160.344 370.354 198.115 386 237.5 386C276.885 386 314.656 370.355 342.505 342.505C370.354 314.656 386 276.885 386 237.5L341.331 237.5C341.331 265.038 330.392 291.448 310.92 310.92C291.448 330.392 265.038 341.331 237.5 341.331C209.962 341.331 183.552 330.392 164.08 310.92C144.608 291.448 133.669 265.038 133.669 237.5L89 237.5Z"/>
</mask>
<path d="M89 237.5C89 276.885 104.645 314.656 132.495 342.505C160.344 370.354 198.115 386 237.5 386C276.885 386 314.656 370.355 342.505 342.505C370.354 314.656 386 276.885 386 237.5L341.331 237.5C341.331 265.038 330.392 291.448 310.92 310.92C291.448 330.392 265.038 341.331 237.5 341.331C209.962 341.331 183.552 330.392 164.08 310.92C144.608 291.448 133.669 265.038 133.669 237.5L89 237.5Z" fill="#F0EAD2" stroke="#F0EAD2" stroke-width="40" mask="url(#path-2-inside-1_711_31)"/>
<mask id="path-3-inside-2_711_31" fill="white">
<path d="M0.00845437 235.496C-0.369106 280.242 11.902 324.184 35.4079 362.26C58.9139 400.336 92.6984 430.997 132.869 450.71C173.04 470.424 217.963 478.388 262.463 473.685C306.962 468.981 349.227 451.802 384.39 424.127L356.764 389.028C328.215 411.498 293.898 425.446 257.768 429.265C221.637 433.084 185.163 426.617 152.547 410.612C119.932 394.606 92.5009 369.711 73.4157 338.796C54.3306 307.881 44.3674 272.203 44.6739 235.873L0.00845437 235.496Z"/>
</mask>
<path d="M0.00845437 235.496C-0.369106 280.242 11.902 324.184 35.4079 362.26C58.9139 400.336 92.6984 430.997 132.869 450.71C173.04 470.424 217.963 478.388 262.463 473.685C306.962 468.981 349.227 451.802 384.39 424.127L356.764 389.028C328.215 411.498 293.898 425.446 257.768 429.265C221.637 433.084 185.163 426.617 152.547 410.612C119.932 394.606 92.5009 369.711 73.4157 338.796C54.3306 307.881 44.3674 272.203 44.6739 235.873L0.00845437 235.496Z" fill="#F0EAD2" stroke="#F0EAD2" stroke-width="40" stroke-linecap="round" stroke-linejoin="round" mask="url(#path-3-inside-2_711_31)"/>
<path d="M200 214V105" stroke="#F0EAD2" stroke-width="20" stroke-linecap="round" stroke-linejoin="round"/>
<path d="M237 211V54" stroke="#F0EAD2" stroke-width="20" stroke-linecap="round" stroke-linejoin="round"/>
<path d="M274 214L274 16" stroke="#F0EAD2" stroke-width="20" stroke-linecap="round" stroke-linejoin="round"/>
</svg>
